<svg xmlns="http://www.w3.org/2000/svg" width="128" height="128" viewBox="0 0 128 128" fill="none">
  <defs>
    <linearGradient id="bgM" x1="14" y1="12" x2="116" y2="120" gradientUnits="userSpaceOnUse">
      <stop stop-color="#E0F1FF"/>
      <stop offset="1" stop-color="#C3E2FF"/>
    </linearGradient>
    <linearGradient id="hairM" x1="64" y1="18" x2="64" y2="52" gradientUnits="userSpaceOnUse">
      <stop stop-color="#725146"/>
      <stop offset="1" stop-color="#5A4037"/>
    </linearGradient>
    <linearGradient id="faceM" x1="64" y1="35" x2="64" y2="82" gradientUnits="userSpaceOnUse">
      <stop stop-color="#F8D6C3"/>
      <stop offset="1" stop-color="#F0C6AE"/>
    </linearGradient>
  </defs>

  <rect width="128" height="128" rx="64" fill="url(#bgM)"/>

  <!-- Ears -->
  <ellipse cx="40" cy="58" rx="5" ry="7" fill="#EEBFA6"/>
  <ellipse cx="88" cy="58" rx="5" ry="7" fill="#EEBFA6"/>

  <!-- Neck -->
  <rect x="56" y="74" width="16" height="12" rx="7" fill="#EABCA3"/>

  <!-- Face -->
  <ellipse cx="64" cy="56" rx="24" ry="27" fill="url(#faceM)"/>

  <!-- Hair -->
  <path d="M38 46C38 30 50 21 64 21C78 21 90 30 90 46C84 42 76 40 67 41C57 42 48 47 38 46Z" fill="url(#hairM)"/>
  <path d="M55 29C60 25 69 25 75 28" stroke="#8A6659" stroke-width="2" stroke-linecap="round" opacity="0.5"/>

  <!-- Brows -->
  <path d="M49 49C52 47 56 47 59 49" stroke="#4D362E" stroke-width="2.2" stroke-linecap="round"/>
  <path d="M69 49C72 47 76 47 79 49" stroke="#4D362E" stroke-width="2.2" stroke-linecap="round"/>

  <!-- Eyes -->
  <ellipse cx="54" cy="56" rx="5" ry="4" fill="#fff"/>
  <ellipse cx="74" cy="56" rx="5" ry="4" fill="#fff"/>
  <circle cx="54" cy="56" r="2.2" fill="#3A4A3B"/>
  <circle cx="74" cy="56" r="2.2" fill="#3A4A3B"/>
  <circle cx="55" cy="55" r="0.8" fill="#fff"/>
  <circle cx="75" cy="55" r="0.8" fill="#fff"/>

  <!-- Glasses -->
  <rect x="46.5" y="51" width="15" height="10.5" rx="5" stroke="#5C3F36" stroke-width="1.8" fill="none"/>
  <rect x="66.5" y="51" width="15" height="10.5" rx="5" stroke="#5C3F36" stroke-width="1.8" fill="none"/>
  <path d="M61.5 56H66.5" stroke="#5C3F36" stroke-width="1.8" stroke-linecap="round"/>
  <path d="M46.5 55L42 53" stroke="#5C3F36" stroke-width="1.5" stroke-linecap="round"/>
  <path d="M81.5 55L86 53" stroke="#5C3F36" stroke-width="1.5" stroke-linecap="round"/>

  <!-- Nose -->
  <path d="M64 60V65" stroke="#D5A392" stroke-width="1.6" stroke-linecap="round"/>
  <path d="M62 66C63 66.8 65 66.8 66 66" stroke="#D5A392" stroke-width="1.2" stroke-linecap="round"/>

  <!-- Mustache (neat, small) -->
  <path d="M56 70C58 68 62 68 64 70C66 68 70 68 72 70" stroke="#5A3E33" stroke-width="2.2" stroke-linecap="round"/>

  <!-- Chin beard (small goatee) -->
  <path d="M58 76C58 72 62 71 64 71C66 71 70 72 70 76C70 80 68 83 64 83C60 83 58 80 58 76Z" fill="#5A3E33"/>

  <!-- Smile line peeking under mustache -->
  <path d="M58 72C60 73 68 73 70 72" stroke="#D5A392" stroke-width="1" stroke-linecap="round" opacity="0.5"/>

  <!-- Shoulders / shirt + tie -->
  <path d="M33 112C36 97 48 88 64 88C80 88 92 97 95 112" fill="#F2F4F7"/>
  <path d="M61 92H67L69 112H59L61 92Z" fill="#D64545"/>
</svg>
